<svg width="6" height="5" viewBox="0 0 6 5" fill="none" xmlns="http://www.w3.org/2000/svg">
<path d="M3.1986 4.29747L2.14299 4.27774C1.8012 4.27086 1.45857 4.28459 1.12348 4.21336C0.613744 4.10695 0.577632 3.58517 0.539845 3.14749C0.487778 2.53218 0.507935 1.90569 0.606192 1.29551C0.661661 0.953139 0.879955 0.748842 1.21754 0.726611C2.35713 0.64593 3.5043 0.655491 4.64137 0.693132C4.76146 0.696582 4.88237 0.715442 5.00078 0.73691C5.5853 0.841613 5.59955 1.43291 5.63744 1.93066C5.67523 2.43356 5.65927 2.93903 5.58705 3.4385C5.52911 3.85205 5.41825 4.19885 4.95039 4.23233C4.3642 4.2761 3.79147 4.31135 3.20363 4.30013C3.20365 4.29747 3.20028 4.29747 3.1986 4.29747ZM2.578 3.25048C3.01975 2.99129 3.45306 2.73642 3.89228 2.47897C3.44971 2.21978 3.01722 1.96491 2.578 1.70745V3.25048Z" fill="#4A3AFF"/>
</svg>
